<svg width="689" height="737" viewBox="0 0 689 737" fill="none" xmlns="http://www.w3.org/2000/svg">
<circle cx="344.5" cy="368.5" r="344.5" fill="#FBFFE8"/>
<path d="M544.556 489.869C531.615 489.869 519.727 487.16 508.893 481.743C498.359 476.025 489.932 467.147 483.612 455.108C477.292 443.07 474.132 427.12 474.132 407.257C474.132 388.597 476.991 373.249 482.71 361.211C488.428 348.871 496.252 339.692 506.184 333.673C516.115 327.654 527.251 324.645 539.59 324.645C552.832 324.645 563.967 327.805 572.996 334.125C582.325 340.445 589.247 349.022 593.762 359.856C592.859 337.887 589.247 319.378 582.927 304.33C576.908 288.981 568.03 277.244 556.293 269.118C544.857 260.692 530.26 256.478 512.504 256.478C498.359 256.478 485.719 259.036 474.584 264.153C463.749 268.968 454.57 275.589 447.046 284.016C439.523 292.442 433.804 301.922 429.892 312.456C426.281 322.688 424.475 333.222 424.475 344.056V436.148C424.475 445.177 424.625 452.55 424.926 458.268C425.528 463.686 426.13 468.2 426.732 471.811C427.635 475.122 428.387 477.981 428.989 480.389C422.97 484.903 415.898 487.16 407.772 487.16C403.257 487.16 399.345 486.408 396.035 484.903C393.025 483.398 390.617 480.689 388.812 476.777C387.307 472.564 386.555 466.846 386.555 459.623V336.833C386.555 328.707 385.05 319.829 382.04 310.199C379.332 300.267 374.667 290.938 368.046 282.21C361.726 273.181 352.998 265.958 341.863 260.541C331.028 255.124 317.485 252.415 301.234 252.415C287.39 252.415 273.546 254.823 259.702 259.638C246.159 264.454 233.67 272.128 222.233 282.661C211.098 292.894 202.22 306.136 195.599 322.387C188.978 338.639 185.667 358.051 185.667 380.622C185.667 399.281 188.075 415.533 192.89 429.377C197.706 443.221 204.627 454.055 213.656 461.88C222.685 469.404 233.519 473.166 246.159 473.166C258.498 473.166 268.731 469.404 276.857 461.88C285.283 454.055 289.497 442.769 289.497 428.022C289.497 419.596 287.841 411.47 284.531 403.645C281.22 395.82 275.954 389.5 268.731 384.685C261.508 379.569 252.178 377.011 240.742 377.011H224.942V360.759H240.742C249.771 360.759 257.595 358.351 264.216 353.536C270.837 348.721 275.803 342.551 279.114 335.027C282.725 327.203 284.531 318.776 284.531 309.747C284.531 295.903 280.468 284.919 272.342 276.793C264.517 268.366 254.285 262.196 241.645 258.284C229.005 254.071 215.462 251.964 201.016 251.964C178.143 251.964 157.378 256.93 138.718 266.861C120.36 276.793 105.764 290.938 94.9295 309.296C84.0952 327.654 78.678 349.774 78.678 375.656C78.678 393.714 81.3866 410.417 86.8037 425.765C92.2209 440.813 99.7448 452.851 109.375 461.88C119.006 470.908 130.292 475.423 143.233 475.423C146.543 477.83 147.296 480.84 145.49 484.451C143.985 488.063 139.32 489.869 131.496 489.869C119.758 489.869 108.172 485.053 96.7352 475.423C85.5999 465.792 76.2703 452.249 68.7465 434.794C61.2226 417.339 57.4607 397.175 57.4607 374.302C57.4607 346.915 63.3293 322.839 75.0665 302.073C87.1047 281.307 104.109 265.056 126.078 253.318C148.048 241.28 174.231 235.261 204.627 235.261C218.772 235.261 232.767 236.766 246.611 239.775C260.755 242.484 273.546 246.848 284.982 252.867C296.419 258.886 305.598 266.56 312.52 275.89C319.442 284.919 322.903 295.903 322.903 308.844C322.903 319.378 320.495 328.858 315.68 337.285C311.165 345.41 304.996 352.182 297.171 357.599C289.346 362.715 280.619 366.327 270.988 368.433C282.725 369.035 292.807 372.346 301.234 378.365C309.962 384.384 316.733 392.058 321.548 401.388C326.364 410.417 328.771 420.047 328.771 430.28C328.771 441.415 325.912 451.497 320.194 460.526C314.476 469.554 306.049 476.777 294.914 482.194C284.079 487.311 270.837 489.869 255.188 489.869C234.723 489.869 217.719 485.354 204.176 476.326C190.633 466.996 180.551 453.905 173.93 437.051C167.309 420.198 163.999 400.636 163.999 378.365C163.999 353.988 167.61 332.921 174.833 315.164C182.357 297.107 192.589 282.21 205.53 270.473C218.772 258.435 233.67 249.556 250.222 243.838C267.076 238.12 284.982 235.261 303.942 235.261C325.009 235.261 342.916 238.572 357.663 245.193C372.41 251.513 384.297 260.541 393.326 272.278C402.355 283.715 408.825 296.806 412.738 311.553C416.048 298.01 422.067 285.52 430.795 274.084C439.523 262.347 450.808 253.017 464.652 246.095C478.496 238.873 494.748 235.261 513.407 235.261C529.057 235.261 543.954 238.271 558.099 244.29C572.243 250.008 584.733 258.735 595.567 270.473C606.402 282.21 614.829 296.957 620.848 314.713C627.168 332.168 630.328 352.784 630.328 376.559C630.328 397.927 627.92 415.834 623.105 430.28C618.29 444.725 611.669 456.463 603.242 465.491C595.116 474.219 585.937 480.389 575.704 484C565.773 487.912 555.39 489.869 544.556 489.869ZM541.396 472.714C556.443 472.714 568.181 466.996 576.607 455.56C585.335 443.823 589.699 428.173 589.699 408.611C589.699 388.146 585.185 372.195 576.156 360.759C567.428 349.323 555.691 343.605 540.944 343.605C526.197 343.605 514.761 349.323 506.635 360.759C498.811 372.195 494.898 387.995 494.898 408.159C494.898 428.624 498.961 444.575 507.087 456.011C515.213 467.147 526.649 472.714 541.396 472.714Z" fill="#005A45"/>
</svg>
